<?xml version="1.0" encoding="utf-8"?>
<!-- Generator: Adobe Illustrator 17.0.0, SVG Export Plug-In . SVG Version: 6.00 Build 0)  -->
<!DOCTYPE svg PUBLIC "-//W3C//DTD SVG 1.1//EN" "http://www.w3.org/Graphics/SVG/1.1/DTD/svg11.dtd">
<svg version="1.1" id="Livello_1" xmlns="http://www.w3.org/2000/svg" xmlns:xlink="http://www.w3.org/1999/xlink" x="0px" y="0px"
	 width="48px" height="48px" viewBox="0 0 48 48" enable-background="new 0 0 48 48" xml:space="preserve">
<path fill="none" d="M0,0h48v48H0V0z"/>
<path fill="#3F51B5" d="M24,4C12.96,4,4,12.96,4,24s8.96,20,20,20s20-8.96,20-20S35.04,4,24,4z M26,38h-4v-4h4V38z M30.14,22.5
	l-1.8,1.84C26.9,25.8,26,27,26,30h-4v-1c0-2.2,0.9-4.2,2.34-5.66l2.48-2.52C27.56,20.1,28,19.1,28,18c0-2.2-1.8-4-4-4s-4,1.8-4,4h-4
	c0-4.42,3.58-8,8-8s8,3.58,8,8C32,19.76,31.28,21.36,30.14,22.5z"/>
</svg>
